# xmcd
#
# Track frame offsets: 
#        150
#        10615
#        26094
#        41312
#        57537
#        71711
#        82875
#        104234
#        155486
#        162678
#        174035
#        191436
#        209936
#        228223
#        242788
#        257430
#        296873
#        313943
#
# Disc length: 4420 seconds
#
# Revision: 0
# Processed by: cddbd v1.5.2PL0 Copyright (c) Steve Scherf et al.
# Submitted via: ExactAudioCopy v1.0b4
#
DISCID=02114212
DTITLE=Alexis Korner - And (DLP)
DYEAR=1961
DGENRE=Blues
TTITLE0=She Fooled Me
TTITLE1=Hoochie Coochie Man
TTITLE2=Oh Lord Don' t Let Them Drop That Atomic Bomb On Me
TTITLE3=I Got A Woman
TTITLE4=Corina Corina
TTITLE5=Everyday I Have The Blues
TTITLE6=Operator
TTITLE7=Rosie
TTITLE8=Polly Put The Kettle On
TTITLE9=I See It
TTITLE10=You Don' t Miss Your Water Till Your Well Runs Dry
TTITLE11=You Don' t Miss Your Water Till Your Well Runs Dry
TTITLE12=Lo And Behold
TTITLE13=Louisiana Blues
TTITLE14=Oo Whee Baby
TTITLE15=Rock Me Baby
TTITLE16=Sweet Sympathy
TTITLE17=Country Shoes
EXTD=
EXTT0=
EXTT1=
EXTT2=
EXTT3=
EXTT4=
EXTT5=
EXTT6=
EXTT7=
EXTT8=
EXTT9=
EXTT10=
EXTT11=
EXTT12=
EXTT13=
EXTT14=
EXTT15=
EXTT16=
EXTT17=
PLAYORDER=
